<svg width="500" height="500" viewBox="0 0 500 500" fill="none" xmlns="http://www.w3.org/2000/svg">
<rect width="500" height="500" fill="#EDEDED"/>
<rect x="122" y="85" width="4" height="174" rx="2" fill="#FECA0A"/>
<rect x="246" y="85" width="4" height="174" rx="2" fill="#FECA0A"/>
<rect x="370" y="85" width="4" height="174" rx="2" fill="#FECA0A"/>
<rect x="97" y="107" width="298" height="5" rx="2.5" fill="#FECA0A"/>
<rect x="97" y="231" width="301" height="5" rx="2.5" fill="#FECA0A"/>
<rect x="119" y="105" width="133" height="132" rx="13" fill="#292929"/>
<rect x="268" y="78" width="133" height="132" rx="13" fill="#292929"/>
<path d="M105.5 332.5L98 331L97.5 325.5L122.5 273L126.5 269.5L132.5 270L136.5 273L158.5 321V329L151 332.5L141.5 323.5H116L105.5 332.5Z" fill="#292929"/>
<path d="M168.5 332.5L166.5 327.5L168 274L170.5 270.5L185 273L193 291.5L204.5 268.5L215.5 268L219 270.5L220 330L217.5 333.5L207.5 334.5L204 314L195.5 324.5L192 325.5L180.5 320L180 331.5L168.5 332.5Z" fill="#292929"/>
<path d="M235 332.5L227.5 331.5V325.254L251.5 273.5L256 269.5L262 270L266 273L288 321.5L288.5 329L280.5 332.5L268.5 319.5H247.5L241 327L235 332.5Z" fill="#292929"/>
<path d="M311 331.5L297 334.5L295 326.5L294.5 274.5L295 270.5H308L326 283.5L327 267L336 266.5L343 269L341 331L340 332L328 331.5L322.5 323L313.5 316.5L311 331.5Z" fill="#292929"/>
<path d="M359 331C357.167 329.833 353.4 327.3 353 326.5L352 289L353 274.5L359 270.5L399.5 272L401 273.5L400 326.5L397.5 330L393 332.5L359 331Z" fill="#292929"/>
<path d="M257.5 395L261.5 387.5L257.5 380H103C99.091 380.257 96 383.526 96 387.5C96 391.474 99.091 394.743 103 395H257.5Z" fill="#FECA0A"/>
<path d="M258 380L263 387.5L258 395H391.5C395.642 395 399 391.642 399 387.5C399 383.358 395.642 380 391.5 380H258Z" fill="#498BBF"/>
<path d="M115 380H106.5L111.5 387.5L106.5 395H115L120 387.5L115 380Z" fill="#FEDA0D"/>
<path d="M131.5 380H123L128 387.5L123 395H131.5L136.5 387.5L131.5 380Z" fill="#FEDA0D"/>
<path d="M146.5 380H138L143 387.5L138 395H146.5L151.5 387.5L146.5 380Z" fill="#FEDA0D"/>
<path d="M162.5 380H154L159 387.5L154 395H162.5L167.5 387.5L162.5 380Z" fill="#FEDA0D"/>
<path d="M178.5 380H170L175 387.5L170 395H178.5L183.5 387.5L178.5 380Z" fill="#FEDA0D"/>
<path d="M194.5 380H186L191 387.5L186 395H194.5L199.5 387.5L194.5 380Z" fill="#FEDA0D"/>
<path d="M210.5 380H202L207 387.5L202 395H210.5L215.5 387.5L210.5 380Z" fill="#FEDA0D"/>
<path d="M226.5 380H218L223 387.5L218 395H226.5L231.5 387.5L226.5 380Z" fill="#FEDA0D"/>
<path d="M242.5 380H234L239 387.5L234 395H242.5L247.5 387.5L242.5 380Z" fill="#FEDA0D"/>
<path d="M258.5 380H250L255 387.5L250 395H258.5L263.5 387.5L258.5 380Z" fill="#FEDA0D"/>
<path d="M274.5 380H266L271 387.5L266 395H274.5L279.5 387.5L274.5 380Z" fill="#5FAED2"/>
<path d="M290.5 380H282L287 387.5L282 395H290.5L295.5 387.5L290.5 380Z" fill="#5FAED2"/>
<path d="M306.5 380H298L303 387.5L298 395H306.5L311.5 387.5L306.5 380Z" fill="#5FAED2"/>
<path d="M322.5 380H314L319 387.5L314 395H322.5L327.5 387.5L322.5 380Z" fill="#5FAED2"/>
<path d="M337.5 380H329L334 387.5L329 395H337.5L342.5 387.5L337.5 380Z" fill="#5FAED2"/>
<path d="M353.5 380H345L350 387.5L345 395H353.5L358.5 387.5L353.5 380Z" fill="#5FAED2"/>
<path d="M369.5 380H361L366 387.5L361 395H369.5L374.5 387.5L369.5 380Z" fill="#5FAED2"/>
<path d="M385.5 380H377L382 387.5L377 395H385.5L390.5 387.5L385.5 380Z" fill="#5FAED2"/>
<path d="M106.463 365.228H117.071C117.929 365.228 118.553 365.332 118.943 365.54C119.333 365.722 119.593 366.021 119.723 366.437C119.853 366.853 119.918 367.412 119.918 368.114C119.918 368.79 119.853 369.336 119.723 369.752C119.593 370.168 119.372 370.454 119.06 370.61C118.566 370.87 117.89 371 117.032 371H102.992C101.172 371 100.106 370.506 99.794 369.518C99.638 369.102 99.56 368.439 99.56 367.529V345.845C99.56 345.247 99.573 344.805 99.599 344.519C99.651 344.207 99.781 343.856 99.989 343.466C100.353 342.764 101.367 342.413 103.031 342.413C104.851 342.413 105.93 342.894 106.268 343.856C106.398 344.298 106.463 344.974 106.463 345.884V365.228Z" fill="#FECA0A"/>
<path d="M125.921 342.374L133.136 342.413C136.906 342.413 140.221 343.778 143.081 346.508C145.941 349.212 147.371 352.553 147.371 356.531C147.371 360.483 145.967 363.876 143.159 366.71C140.377 369.544 136.997 370.961 133.019 370.961H125.882C124.296 370.961 123.308 370.636 122.918 369.986C122.606 369.44 122.45 368.608 122.45 367.49V345.806C122.45 345.182 122.463 344.727 122.489 344.441C122.541 344.155 122.671 343.817 122.879 343.427C123.243 342.725 124.257 342.374 125.921 342.374ZM133.136 364.058C135.008 364.058 136.698 363.369 138.206 361.991C139.714 360.587 140.468 358.832 140.468 356.726C140.468 354.62 139.727 352.865 138.245 351.461C136.789 350.031 135.073 349.316 133.097 349.316H129.353V364.058H133.136Z" fill="#FECA0A"/>
<path d="M161.844 357.35L159.309 357.194V362.576C159.309 363.278 159.413 363.785 159.621 364.097C159.855 364.409 160.271 364.565 160.869 364.565C161.493 364.565 161.961 364.591 162.273 364.643C162.611 364.669 162.962 364.786 163.326 364.994C163.924 365.332 164.223 366.203 164.223 367.607C164.223 369.245 163.859 370.246 163.131 370.61C162.741 370.792 162.39 370.909 162.078 370.961C161.792 370.987 161.363 371 160.791 371C158.087 371 156.033 370.389 154.629 369.167C153.225 367.945 152.523 365.878 152.523 362.966V357.194C152.029 357.272 151.496 357.311 150.924 357.311C150.352 357.311 149.871 357.09 149.481 356.648C149.117 356.206 148.935 355.452 148.935 354.386C148.935 353.32 149 352.553 149.13 352.085C149.26 351.591 149.442 351.24 149.676 351.032C150.092 350.694 150.612 350.525 151.236 350.525L152.523 350.681V346.664C152.523 346.066 152.536 345.624 152.562 345.338C152.614 345.052 152.744 344.74 152.952 344.402C153.29 343.752 154.291 343.427 155.955 343.427C157.723 343.427 158.776 343.908 159.114 344.87C159.244 345.286 159.309 345.949 159.309 346.859V350.681C160.453 350.577 161.311 350.525 161.883 350.525C162.481 350.525 162.923 350.551 163.209 350.603C163.521 350.629 163.872 350.746 164.262 350.954C164.938 351.292 165.276 352.293 165.276 353.957C165.276 355.595 164.925 356.596 164.223 356.96C163.833 357.142 163.482 357.259 163.17 357.311C162.884 357.337 162.442 357.35 161.844 357.35Z" fill="#FECA0A"/>
<path d="M179.519 360.704L184.706 364.994C185.356 365.54 185.759 365.956 185.915 366.242C186.097 366.528 186.188 366.801 186.188 367.061C186.188 367.685 185.785 368.53 184.979 369.596C184.095 370.688 183.315 371.234 182.639 371.234C182.067 371.234 181.274 370.857 180.26 370.103L179.87 369.83C179.272 369.336 178.349 368.478 177.101 367.256C175.853 366.008 174.904 365.124 174.254 364.604V367.607C174.254 368.205 174.228 368.66 174.176 368.972C174.15 369.258 174.033 369.596 173.825 369.986C173.487 370.662 172.486 371 170.822 371C169.184 371 168.183 370.649 167.819 369.947C167.637 369.557 167.52 369.219 167.468 368.933C167.442 368.621 167.429 368.166 167.429 367.568V344.207C167.429 343.609 167.442 343.167 167.468 342.881C167.52 342.569 167.637 342.218 167.819 341.828C168.183 341.126 169.197 340.775 170.861 340.775C172.109 340.775 172.993 340.996 173.513 341.438C173.955 341.802 174.189 342.374 174.215 343.154C174.241 343.388 174.254 343.752 174.254 344.246V356.609C174.722 356.219 175.424 355.556 176.36 354.62C177.322 353.684 178.037 353.021 178.505 352.631L178.973 352.319C179.883 351.617 180.663 351.266 181.313 351.266C181.963 351.266 182.704 351.799 183.536 352.865C184.394 353.905 184.823 354.724 184.823 355.322C184.823 355.92 184.342 356.622 183.38 357.428L179.519 360.704Z" fill="#FECA0A"/>
<path d="M210.494 357.35L207.959 357.194V362.576C207.959 363.278 208.063 363.785 208.271 364.097C208.505 364.409 208.921 364.565 209.519 364.565C210.143 364.565 210.611 364.591 210.923 364.643C211.261 364.669 211.612 364.786 211.976 364.994C212.574 365.332 212.873 366.203 212.873 367.607C212.873 369.245 212.509 370.246 211.781 370.61C211.391 370.792 211.04 370.909 210.728 370.961C210.442 370.987 210.013 371 209.441 371C206.737 371 204.683 370.389 203.279 369.167C201.875 367.945 201.173 365.878 201.173 362.966V357.194C200.679 357.272 200.146 357.311 199.574 357.311C199.002 357.311 198.521 357.09 198.131 356.648C197.767 356.206 197.585 355.452 197.585 354.386C197.585 353.32 197.65 352.553 197.78 352.085C197.91 351.591 198.092 351.24 198.326 351.032C198.742 350.694 199.262 350.525 199.886 350.525L201.173 350.681V346.664C201.173 346.066 201.186 345.624 201.212 345.338C201.264 345.052 201.394 344.74 201.602 344.402C201.94 343.752 202.941 343.427 204.605 343.427C206.373 343.427 207.426 343.908 207.764 344.87C207.894 345.286 207.959 345.949 207.959 346.859V350.681C209.103 350.577 209.961 350.525 210.533 350.525C211.131 350.525 211.573 350.551 211.859 350.603C212.171 350.629 212.522 350.746 212.912 350.954C213.588 351.292 213.926 352.293 213.926 353.957C213.926 355.595 213.575 356.596 212.873 356.96C212.483 357.142 212.132 357.259 211.82 357.311C211.534 357.337 211.092 357.35 210.494 357.35Z" fill="#292929"/>
<path d="M215.495 360.743C215.495 357.623 216.587 355.049 218.771 353.021C220.955 350.993 223.451 349.979 226.259 349.979C229.067 349.979 231.55 350.993 233.708 353.021C235.866 355.023 236.945 357.584 236.945 360.704C236.945 362.862 236.386 364.786 235.268 366.476C234.15 368.14 232.785 369.375 231.173 370.181C229.587 370.961 227.936 371.351 226.22 371.351C224.504 371.351 222.84 370.935 221.228 370.103C219.616 369.245 218.251 367.997 217.133 366.359C216.041 364.695 215.495 362.823 215.495 360.743ZM223.646 363.551C224.478 364.175 225.323 364.487 226.181 364.487C227.039 364.487 227.897 364.162 228.755 363.512C229.613 362.862 230.042 361.9 230.042 360.626C230.042 359.352 229.639 358.403 228.833 357.779C228.027 357.155 227.156 356.843 226.22 356.843C225.284 356.843 224.413 357.168 223.607 357.818C222.801 358.468 222.398 359.43 222.398 360.704C222.398 361.952 222.814 362.901 223.646 363.551Z" fill="#292929"/>
<path d="M99.36 409.07C99.36 408.549 99.3713 408.163 99.394 407.914C99.4393 407.642 99.5527 407.336 99.734 406.996C100.051 406.384 100.935 406.078 102.386 406.078C103.973 406.078 104.913 406.497 105.208 407.336C105.321 407.721 105.378 408.311 105.378 409.104V428.008C105.378 428.552 105.355 428.949 105.31 429.198C105.287 429.447 105.185 429.742 105.004 430.082C104.687 430.694 103.803 431 102.352 431C100.765 431 99.836 430.569 99.564 429.708C99.428 429.345 99.36 428.767 99.36 427.974V409.07Z" fill="#292929"/>
<path d="M152.683 407.03C152.865 407.37 152.967 407.676 152.989 407.948C153.035 408.22 153.057 408.617 153.057 409.138V428.008C153.057 429.572 152.627 430.49 151.765 430.762C151.335 430.898 150.791 430.966 150.133 430.966C149.476 430.966 148.955 430.909 148.569 430.796C148.184 430.683 147.889 430.547 147.685 430.388C147.481 430.229 147.323 430.003 147.209 429.708C147.096 429.323 147.039 428.733 147.039 427.94V416.55C146.473 417.253 145.645 418.375 144.557 419.916C143.469 421.435 142.778 422.387 142.483 422.772C142.189 423.157 141.985 423.429 141.871 423.588C141.758 423.724 141.475 423.928 141.021 424.2C140.591 424.449 140.115 424.574 139.593 424.574C139.095 424.574 138.63 424.461 138.199 424.234C137.791 423.985 137.497 423.747 137.315 423.52L137.043 423.146C136.59 422.579 135.695 421.378 134.357 419.542C133.02 417.683 132.295 416.686 132.181 416.55V428.008C132.181 428.529 132.159 428.926 132.113 429.198C132.091 429.447 131.989 429.731 131.807 430.048C131.467 430.66 130.583 430.966 129.155 430.966C127.773 430.966 126.911 430.66 126.571 430.048C126.39 429.731 126.277 429.436 126.231 429.164C126.209 428.892 126.197 428.484 126.197 427.94V409.07C126.197 408.549 126.209 408.163 126.231 407.914C126.277 407.642 126.39 407.336 126.571 406.996C126.911 406.407 127.795 406.112 129.223 406.112C129.835 406.112 130.357 406.191 130.787 406.35C131.241 406.486 131.535 406.633 131.671 406.792L131.875 406.996L139.593 417.128C143.447 412.028 146.019 408.662 147.311 407.03C147.697 406.418 148.603 406.112 150.031 406.112C151.482 406.112 152.366 406.418 152.683 407.03Z" fill="#292929"/>
<path d="M192.28 411.11C192.87 412.311 193.164 413.649 193.164 415.122C193.164 416.595 192.87 417.933 192.28 419.134C191.691 420.313 190.932 421.253 190.002 421.956C188.121 423.407 186.172 424.132 184.154 424.132H179.904V427.974C179.904 428.495 179.882 428.892 179.836 429.164C179.814 429.413 179.712 429.708 179.53 430.048C179.213 430.66 178.329 430.966 176.878 430.966C175.292 430.966 174.362 430.547 174.09 429.708C173.954 429.323 173.886 428.733 173.886 427.94V409.07C173.886 408.549 173.898 408.163 173.92 407.914C173.966 407.642 174.079 407.336 174.26 406.996C174.578 406.384 175.462 406.078 176.912 406.078H184.188C186.183 406.078 188.121 406.803 190.002 408.254C190.932 408.957 191.691 409.909 192.28 411.11ZM184.188 418.114C184.868 418.114 185.537 417.865 186.194 417.366C186.852 416.867 187.18 416.119 187.18 415.122C187.18 414.125 186.852 413.377 186.194 412.878C185.537 412.357 184.857 412.096 184.154 412.096H179.904V418.114H184.188Z" fill="#292929"/>
<path d="M225.17 405.772C228.524 405.772 231.437 406.985 233.908 409.41C236.378 411.835 237.614 414.85 237.614 418.454C237.614 422.035 236.435 425.095 234.078 427.634C231.72 430.15 228.819 431.408 225.374 431.408C221.928 431.408 218.993 430.161 216.568 427.668C214.165 425.175 212.964 422.205 212.964 418.76C212.964 416.879 213.304 415.122 213.984 413.49C214.664 411.835 215.57 410.453 216.704 409.342C217.837 408.231 219.14 407.359 220.614 406.724C222.087 406.089 223.606 405.772 225.17 405.772ZM218.982 418.59C218.982 420.607 219.628 422.251 220.92 423.52C222.234 424.767 223.696 425.39 225.306 425.39C226.915 425.39 228.366 424.778 229.658 423.554C230.95 422.33 231.596 420.687 231.596 418.624C231.596 416.561 230.938 414.907 229.624 413.66C228.332 412.413 226.881 411.79 225.272 411.79C223.662 411.79 222.212 412.425 220.92 413.694C219.628 414.941 218.982 416.573 218.982 418.59Z" fill="#292929"/>
<path d="M277.016 426.784C277.356 427.6 277.526 428.189 277.526 428.552C277.526 429.413 276.823 430.139 275.418 430.728C274.693 431.045 274.103 431.204 273.65 431.204C273.219 431.204 272.857 431.102 272.562 430.898C272.29 430.671 272.086 430.445 271.95 430.218C271.723 429.787 270.839 427.736 269.298 424.064L268.244 424.132H263.96V427.974C263.96 428.495 263.937 428.892 263.892 429.164C263.869 429.413 263.767 429.708 263.586 430.048C263.269 430.66 262.385 430.966 260.934 430.966C259.347 430.966 258.418 430.547 258.146 429.708C258.01 429.323 257.942 428.733 257.942 427.94V409.07C257.942 408.549 257.953 408.163 257.976 407.914C258.021 407.642 258.135 407.336 258.316 406.996C258.633 406.384 259.517 406.078 260.968 406.078H268.312C270.307 406.078 272.245 406.803 274.126 408.254C275.033 408.957 275.781 409.909 276.37 411.11C276.959 412.311 277.254 413.649 277.254 415.122C277.254 417.683 276.404 419.791 274.704 421.446C275.203 422.647 275.973 424.427 277.016 426.784ZM263.96 418.114H268.312C268.969 418.114 269.627 417.865 270.284 417.366C270.941 416.867 271.27 416.119 271.27 415.122C271.27 414.125 270.941 413.377 270.284 412.878C269.627 412.357 268.947 412.096 268.244 412.096H263.96V418.114Z" fill="#292929"/>
<path d="M297.767 406.044H316.671C317.396 406.044 317.929 406.135 318.269 406.316C318.609 406.475 318.836 406.735 318.949 407.098C319.062 407.461 319.119 407.937 319.119 408.526C319.119 409.115 319.062 409.591 318.949 409.954C318.836 410.294 318.643 410.532 318.371 410.668C317.963 410.872 317.385 410.974 316.637 410.974H310.143V428.076C310.143 428.597 310.12 428.983 310.075 429.232C310.052 429.481 309.95 429.776 309.769 430.116C309.61 430.433 309.316 430.66 308.885 430.796C308.454 430.932 307.888 431 307.185 431C306.482 431 305.916 430.932 305.485 430.796C305.077 430.66 304.782 430.433 304.601 430.116C304.442 429.776 304.34 429.481 304.295 429.232C304.272 428.96 304.261 428.563 304.261 428.042V410.974H297.733C297.008 410.974 296.475 410.895 296.135 410.736C295.795 410.555 295.568 410.283 295.455 409.92C295.342 409.557 295.285 409.081 295.285 408.492C295.285 407.903 295.342 407.438 295.455 407.098C295.568 406.735 295.761 406.486 296.033 406.35C296.441 406.146 297.019 406.044 297.767 406.044Z" fill="#292929"/>
<path d="M345.127 424.982H355.599C356.12 424.982 356.506 425.005 356.755 425.05C357.027 425.073 357.333 425.175 357.673 425.356C358.285 425.673 358.591 426.557 358.591 428.008C358.591 429.595 358.172 430.524 357.333 430.796C356.948 430.932 356.358 431 355.565 431H342.101C340.514 431 339.585 430.569 339.313 429.708C339.177 429.345 339.109 428.767 339.109 427.974V409.07C339.109 407.914 339.324 407.132 339.755 406.724C340.186 406.293 341.002 406.078 342.203 406.078H355.599C356.12 406.078 356.506 406.101 356.755 406.146C357.027 406.169 357.333 406.271 357.673 406.452C358.285 406.769 358.591 407.653 358.591 409.104C358.591 410.691 358.172 411.62 357.333 411.892C356.948 412.028 356.358 412.096 355.565 412.096H345.127V415.53H351.859C352.38 415.53 352.766 415.553 353.015 415.598C353.287 415.621 353.593 415.723 353.933 415.904C354.545 416.221 354.851 417.105 354.851 418.556C354.851 420.143 354.42 421.072 353.559 421.344C353.174 421.48 352.584 421.548 351.791 421.548H345.127V424.982Z" fill="#292929"/>
<path d="M397.97 426.784C398.31 427.6 398.48 428.189 398.48 428.552C398.48 429.413 397.777 430.139 396.372 430.728C395.646 431.045 395.057 431.204 394.604 431.204C394.173 431.204 393.81 431.102 393.516 430.898C393.244 430.671 393.04 430.445 392.904 430.218C392.677 429.787 391.793 427.736 390.252 424.064L389.198 424.132H384.914V427.974C384.914 428.495 384.891 428.892 384.846 429.164C384.823 429.413 384.721 429.708 384.54 430.048C384.222 430.66 383.338 430.966 381.888 430.966C380.301 430.966 379.372 430.547 379.1 429.708C378.964 429.323 378.896 428.733 378.896 427.94V409.07C378.896 408.549 378.907 408.163 378.93 407.914C378.975 407.642 379.088 407.336 379.27 406.996C379.587 406.384 380.471 406.078 381.922 406.078H389.266C391.26 406.078 393.198 406.803 395.08 408.254C395.986 408.957 396.734 409.909 397.324 411.11C397.913 412.311 398.208 413.649 398.208 415.122C398.208 417.683 397.358 419.791 395.658 421.446C396.156 422.647 396.927 424.427 397.97 426.784ZM384.914 418.114H389.266C389.923 418.114 390.58 417.865 391.238 417.366C391.895 416.867 392.224 416.119 392.224 415.122C392.224 414.125 391.895 413.377 391.238 412.878C390.58 412.357 389.9 412.096 389.198 412.096H384.914V418.114Z" fill="#292929"/>
<path d="M265.458 353.762H272.322C273.726 353.814 274.584 354.178 274.896 354.854C275.156 355.348 275.286 356.076 275.286 357.038V365.618C275.286 366.45 274.922 367.243 274.194 367.997C272.01 370.259 268.734 371.39 264.366 371.39C260.492 371.39 257.125 369.934 254.265 367.022C251.405 364.084 249.975 360.548 249.975 356.414C249.975 352.28 251.431 348.835 254.343 346.079C257.255 343.297 260.687 341.906 264.639 341.906C267.707 341.906 270.606 342.92 273.336 344.948C274.038 345.468 274.389 346.053 274.389 346.703C274.389 347.327 274.09 348.055 273.492 348.887C272.478 350.265 271.555 350.954 270.723 350.954C270.229 350.954 269.436 350.603 268.344 349.901C267.252 349.173 265.952 348.809 264.444 348.809C262.468 348.809 260.713 349.511 259.179 350.915C257.645 352.293 256.878 354.113 256.878 356.375C256.878 358.611 257.658 360.522 259.218 362.108C260.778 363.668 262.546 364.448 264.522 364.448C265.952 364.448 267.239 364.214 268.383 363.746V359.495H265.302C264.496 359.495 263.924 359.391 263.586 359.183C263.248 358.975 263.027 358.676 262.923 358.286C262.819 357.87 262.767 357.324 262.767 356.648C262.767 355.946 262.819 355.387 262.923 354.971C263.053 354.555 263.274 354.269 263.586 354.113C264.054 353.879 264.678 353.762 265.458 353.762Z" fill="#498BBF"/>
<path d="M277.816 360.743C277.816 357.623 278.908 355.049 281.092 353.021C283.276 350.993 285.772 349.979 288.58 349.979C291.388 349.979 293.871 350.993 296.029 353.021C298.187 355.023 299.266 357.584 299.266 360.704C299.266 362.862 298.707 364.786 297.589 366.476C296.471 368.14 295.106 369.375 293.494 370.181C291.908 370.961 290.257 371.351 288.541 371.351C286.825 371.351 285.161 370.935 283.549 370.103C281.937 369.245 280.572 367.997 279.454 366.359C278.362 364.695 277.816 362.823 277.816 360.743ZM285.967 363.551C286.799 364.175 287.644 364.487 288.502 364.487C289.36 364.487 290.218 364.162 291.076 363.512C291.934 362.862 292.363 361.9 292.363 360.626C292.363 359.352 291.96 358.403 291.154 357.779C290.348 357.155 289.477 356.843 288.541 356.843C287.605 356.843 286.734 357.168 285.928 357.818C285.122 358.468 284.719 359.43 284.719 360.704C284.719 361.952 285.135 362.901 285.967 363.551Z" fill="#498BBF"/>
<path d="M315.553 341.906C315.761 341.516 316.112 341.243 316.606 341.087C317.1 340.931 317.75 340.853 318.556 340.853C319.388 340.853 320.051 340.931 320.545 341.087C321.039 341.243 321.377 341.516 321.559 341.906C321.767 342.296 321.884 342.647 321.91 342.959C321.962 343.245 321.988 343.687 321.988 344.285V367.568C321.988 368.166 321.962 368.621 321.91 368.933C321.884 369.219 321.767 369.544 321.559 369.908C321.169 370.61 320.064 370.961 318.244 370.961C316.45 370.961 315.449 370.324 315.241 369.05C314.149 370.298 312.628 370.922 310.678 370.922C308.338 370.922 306.206 369.908 304.282 367.88C302.358 365.826 301.396 363.447 301.396 360.743C301.396 358.013 302.358 355.621 304.282 353.567C306.232 351.513 308.364 350.486 310.678 350.486C312.602 350.486 314.097 351.136 315.163 352.436V344.246C315.163 343.648 315.176 343.206 315.202 342.92C315.254 342.608 315.371 342.27 315.553 341.906ZM309.235 363.083C309.911 363.785 310.73 364.136 311.692 364.136C312.654 364.136 313.447 363.785 314.071 363.083C314.721 362.381 315.046 361.614 315.046 360.782C315.046 359.924 314.734 359.131 314.11 358.403C313.512 357.675 312.693 357.311 311.653 357.311C310.613 357.311 309.781 357.675 309.157 358.403C308.533 359.105 308.221 359.885 308.221 360.743C308.221 361.601 308.559 362.381 309.235 363.083Z" fill="#498BBF"/>
<path d="M324.509 360.743C324.509 357.623 325.601 355.049 327.785 353.021C329.969 350.993 332.465 349.979 335.273 349.979C338.081 349.979 340.564 350.993 342.722 353.021C344.88 355.023 345.959 357.584 345.959 360.704C345.959 362.862 345.4 364.786 344.282 366.476C343.164 368.14 341.799 369.375 340.187 370.181C338.601 370.961 336.95 371.351 335.234 371.351C333.518 371.351 331.854 370.935 330.242 370.103C328.63 369.245 327.265 367.997 326.147 366.359C325.055 364.695 324.509 362.823 324.509 360.743ZM332.66 363.551C333.492 364.175 334.337 364.487 335.195 364.487C336.053 364.487 336.911 364.162 337.769 363.512C338.627 362.862 339.056 361.9 339.056 360.626C339.056 359.352 338.653 358.403 337.847 357.779C337.041 357.155 336.17 356.843 335.234 356.843C334.298 356.843 333.427 357.168 332.621 357.818C331.815 358.468 331.412 359.43 331.412 360.704C331.412 361.952 331.828 362.901 332.66 363.551Z" fill="#498BBF"/>
<path d="M359.842 357.35L357.307 357.194V362.576C357.307 363.278 357.411 363.785 357.619 364.097C357.853 364.409 358.269 364.565 358.867 364.565C359.491 364.565 359.959 364.591 360.271 364.643C360.609 364.669 360.96 364.786 361.324 364.994C361.922 365.332 362.221 366.203 362.221 367.607C362.221 369.245 361.857 370.246 361.129 370.61C360.739 370.792 360.388 370.909 360.076 370.961C359.79 370.987 359.361 371 358.789 371C356.085 371 354.031 370.389 352.627 369.167C351.223 367.945 350.521 365.878 350.521 362.966V357.194C350.027 357.272 349.494 357.311 348.922 357.311C348.35 357.311 347.869 357.09 347.479 356.648C347.115 356.206 346.933 355.452 346.933 354.386C346.933 353.32 346.998 352.553 347.128 352.085C347.258 351.591 347.44 351.24 347.674 351.032C348.09 350.694 348.61 350.525 349.234 350.525L350.521 350.681V346.664C350.521 346.066 350.534 345.624 350.56 345.338C350.612 345.052 350.742 344.74 350.95 344.402C351.288 343.752 352.289 343.427 353.953 343.427C355.721 343.427 356.774 343.908 357.112 344.87C357.242 345.286 357.307 345.949 357.307 346.859V350.681C358.451 350.577 359.309 350.525 359.881 350.525C360.479 350.525 360.921 350.551 361.207 350.603C361.519 350.629 361.87 350.746 362.26 350.954C362.936 351.292 363.274 352.293 363.274 353.957C363.274 355.595 362.923 356.596 362.221 356.96C361.831 357.142 361.48 357.259 361.168 357.311C360.882 357.337 360.44 357.35 359.842 357.35Z" fill="#498BBF"/>
<path d="M388.746 343.349C388.954 342.985 389.305 342.738 389.799 342.608C390.319 342.452 390.982 342.374 391.788 342.374C392.62 342.374 393.283 342.465 393.777 342.647C394.271 342.803 394.622 343.076 394.83 343.466C395.038 343.83 395.155 344.168 395.181 344.48C395.233 344.792 395.259 345.247 395.259 345.845V367.529C395.259 368.543 395.129 369.297 394.869 369.791C394.635 370.259 394.258 370.571 393.738 370.727C393.244 370.883 392.62 370.961 391.866 370.961C391.112 370.961 390.514 370.896 390.072 370.766C389.63 370.636 389.292 370.48 389.058 370.298C388.824 370.116 388.655 369.856 388.551 369.518C388.395 369.076 388.317 368.4 388.317 367.49V362.732H377.748C375.928 362.732 374.849 362.238 374.511 361.25C374.381 360.834 374.316 360.275 374.316 359.573C374.316 358.871 374.355 358.351 374.433 358.013L377.67 344.948C377.826 344.35 377.956 343.895 378.06 343.583C378.19 343.271 378.424 342.972 378.762 342.686C379.126 342.4 379.581 342.257 380.127 342.257C380.673 342.257 381.271 342.348 381.921 342.53C383.741 343.024 384.651 343.856 384.651 345.026C384.651 345.442 384.56 345.988 384.378 346.664C384.352 346.716 384.339 346.755 384.339 346.781L381.96 356.297H388.317V345.65C388.317 345.052 388.33 344.61 388.356 344.324C388.408 344.038 388.538 343.713 388.746 343.349Z" fill="#498BBF"/>
</svg>
